# xmcd CD database file
#
# Track frame offsets:
#	150
#	32827
#	68715
#	95689
#	131948
#	162838
#	192830
#	223549
#	249995
#
# Disc length: 3529 seconds
#
# Revision: 0
# Processed by: cddbd v1.5.1PL0 Copyright (c) Steve Scherf et al.
# Submitted via: CDex 1.51
#
DISCID=7e0dc709
DTITLE=Fabio Di Cocco - Made in Italy
DYEAR=2001
DGENRE=Jazz
TTITLE0=Generale (De Gregori)
TTITLE1=Tienimi dentro te (Concato)
TTITLE2=Agnese (Graziani)
TTITLE3=Voglio vivere così (D'Anzi)
TTITLE4=La canzone di Marinella (De Andrè)
TTITLE5=Storia d'amore (Celentano)
TTITLE6=La Gatta (Paoli)
TTITLE7=Tu si 'na cosa grande (Modugno)
TTITLE8=Parlami d'amore Mariù (De Sica)
EXTD=YEAR: 2001
EXTT0=
EXTT1=
EXTT2=
EXTT3=
EXTT4=
EXTT5=
EXTT6=
EXTT7=
EXTT8=
PLAYORDER=
